<svg width="62" height="60" viewBox="0 0 62 60" fill="none" xmlns="http://www.w3.org/2000/svg">
<path d="M20.8571 48.1667H22.3571V46.6667V30V28.5H20.8571H14H12.5V30V46.6667V48.1667H14H20.8571ZM34.5714 48.1667H36.0714V46.6667V36.6667V35.1667H34.5714H27.7143H26.2143V36.6667V46.6667V48.1667H27.7143H34.5714ZM34.5714 31.5H36.0714V30V23.3333V21.8333H34.5714H27.7143H26.2143V23.3333V30V31.5H27.7143H34.5714ZM48.2857 48.1667H49.7857V46.6667V13.3333V11.8333H48.2857H41.4286H39.9286V13.3333V46.6667V48.1667H41.4286H48.2857ZM7.14285 1.5H55.1428C58.126 1.5 60.5 3.86798 60.5 6.66667V53.3333C60.5 56.132 58.126 58.5 55.1428 58.5H7.14285C4.15973 58.5 1.78571 56.132 1.78571 53.3333V6.66667C1.78571 3.86798 4.15973 1.5 7.14285 1.5Z" stroke="black" stroke-width="3"/>
</svg>
