<svg width="27" height="46" viewBox="0 0 27 46" fill="none" xmlns="http://www.w3.org/2000/svg">
<path d="M14.8 20.25C8.96284 18.775 7.0857 17.25 7.0857 14.875C7.0857 12.15 9.68284 10.25 14.0286 10.25C18.6057 10.25 20.3028 12.375 20.4571 15.5H26.14C25.96 11.2 23.26 7.25 17.8857 5.975V0.5H10.1714V5.9C5.18284 6.95 1.17141 10.1 1.17141 14.925C1.17141 20.7 6.08284 23.575 13.2571 25.25C19.6857 26.75 20.9714 28.95 20.9714 31.275C20.9714 33 19.7114 35.75 14.0286 35.75C8.73141 35.75 6.64856 33.45 6.3657 30.5H0.708557C1.01713 35.975 5.23427 39.05 10.1714 40.075V45.5H17.8857V40.125C22.9 39.2 26.8857 36.375 26.8857 31.25C26.8857 24.15 20.6371 21.725 14.8 20.25Z" fill="black"/>
</svg>
