<svg width="63" height="44" viewBox="0 0 63 44" fill="none" xmlns="http://www.w3.org/2000/svg">
<path fill-rule="evenodd" clip-rule="evenodd" d="M44.3288 24.8999C48.1719 27.4363 50.8649 30.8726 50.8649 35.4544V43.6363H62.0857V35.4544C62.0857 29.509 52.0712 25.9908 44.3288 24.8999Z" fill="black"/>
<path d="M22.813 21.8182C29.0101 21.8182 34.0338 16.934 34.0338 10.9091C34.0338 4.88417 29.0101 0 22.813 0C16.6159 0 11.5922 4.88417 11.5922 10.9091C11.5922 16.934 16.6159 21.8182 22.813 21.8182Z" fill="black"/>
<path fill-rule="evenodd" clip-rule="evenodd" d="M39.6442 21.8182C45.8437 21.8182 50.865 16.9364 50.865 10.9091C50.865 4.88182 45.8437 0 39.6442 0C38.3257 0 37.0915 0.272727 35.9133 0.654545C38.2416 3.46363 39.6442 7.03636 39.6442 10.9091C39.6442 14.7818 38.2416 18.3545 35.9133 21.1636C37.0915 21.5455 38.3257 21.8182 39.6442 21.8182Z" fill="black"/>
<path fill-rule="evenodd" clip-rule="evenodd" d="M22.813 24.5455C15.3231 24.5455 0.371429 28.2001 0.371429 35.4546V43.6364H45.2545V35.4546C45.2545 28.2001 30.3029 24.5455 22.813 24.5455Z" fill="black"/>
</svg>
