<svg xmlns="http://www.w3.org/2000/svg" width="600" height="400" viewBox="0 0 600 400"><rect width="100%" height="100%" fill="#1a1a1a"/><path fill="#2a2a2a" d="M313.685 254.25q0 3.03-1.15 5.69-1.15 2.67-3.08 4.64-1.92 1.97-4.4 3.12t-5.14 1.15q-2.76 0-5.19-1.15t-4.31-3.12q-1.89-1.97-2.94-4.64-1.06-2.66-1.06-5.69t1.1-5.73q1.11-2.71 2.99-4.73t4.36-3.17 5.23-1.15q2.94 0 5.42 1.15 2.47 1.15 4.31 3.17t2.85 4.73q1.01 2.7 1.01 5.73m-1.56-89.41q0-4.4-.74-8.17-.73-3.76-2.57-6.51-1.84-2.76-4.91-4.32-3.08-1.56-7.85-1.56-2.29 0-4.5.55-2.2.55-4.08 1.42-1.88.88-3.35 1.93-1.47 1.06-2.39 2.16 1.93 1.93 2.71 4.68.78 2.76.78 4.68 0 1.84-.69 4.04t-2.16 4.13-3.81 3.26-5.55 1.33-5.6-1.01-3.95-2.8-2.29-4.27q-.74-2.47-.74-5.32 0-5.05 2.99-10.01 2.98-4.95 8.21-8.95 5.24-3.99 12.4-6.47t15.6-2.48q11.11 0 18.77 2.57 7.67 2.57 12.35 6.8 4.68 4.22 6.75 9.59 2.06 5.37 2.06 10.97 0 6.61-2.89 12.21t-7.25 10.42-9.41 8.9q-5.05 4.09-9.41 7.67t-7.25 6.74q-2.89 3.17-2.89 6.2 0 2.39 1.79 3.95t5.64 1.56q1.29 0 2.71-.14t3.08-.6l2.93 9.64q-2.38 1.29-4.91 2.07-2.52.78-4.95 1.24-2.44.46-4.69.64t-3.99.18q-3.03 0-5.97-.69-2.93-.68-5.23-2.24-2.29-1.56-3.72-4.04-1.42-2.48-1.42-6.06 0-2.3.6-4.41.59-2.11 2.29-4.68t4.68-5.92q2.99-3.35 7.76-8.03 3.31-3.31 6.06-6.52t4.73-6.84q1.97-3.63 3.12-7.85t1.15-9.64"/></svg>