<svg width="63" height="33" viewBox="0 0 63 33" fill="none" xmlns="http://www.w3.org/2000/svg">
<path d="M56.5571 0.25H6.41429C3.35001 0.25 0.842865 2.6875 0.842865 5.66667V27.3333C0.842865 30.3125 3.35001 32.75 6.41429 32.75H56.5571C59.6214 32.75 62.1286 30.3125 62.1286 27.3333V5.66667C62.1286 2.6875 59.6214 0.25 56.5571 0.25ZM28.7 19.2083H20.3429V27.3333H14.7714V19.2083H6.41429V13.7917H14.7714V5.66667H20.3429V13.7917H28.7V19.2083ZM41.2357 24.625C38.9236 24.625 37.0571 22.8104 37.0571 20.5625C37.0571 18.3146 38.9236 16.5 41.2357 16.5C43.5479 16.5 45.4143 18.3146 45.4143 20.5625C45.4143 22.8104 43.5479 24.625 41.2357 24.625ZM52.3786 16.5C50.0664 16.5 48.2 14.6854 48.2 12.4375C48.2 10.1896 50.0664 8.375 52.3786 8.375C54.6907 8.375 56.5571 10.1896 56.5571 12.4375C56.5571 14.6854 54.6907 16.5 52.3786 16.5Z" fill="black"/>
</svg>
