  <svg xmlns="http://www.w3.org/2000/svg" viewBox="0 0 50 50" fill="currentColor">
    <path d="M16.28125 0.03125C16.152344 0.0546875 16.019531 0.078125 15.90625 0.15625C15.449219 0.464844 15.347656 1.105469 15.65625 1.5625L17.8125 4.78125C14.480469 6.546875 11.996094 9.480469 11.1875 13L38.8125 13C38.003906 9.480469 35.519531 6.546875 32.1875 4.78125L34.34375 1.5625C34.652344 1.105469 34.550781 0.464844 34.09375 0.15625C33.632813 -0.152344 32.996094 -0.0195313 32.6875 0.4375L30.3125 3.9375C28.664063 3.335938 26.875 3 25 3C23.125 3 21.335938 3.335938 19.6875 3.9375L17.3125 0.4375C17.082031 0.09375 16.664063 -0.0429688 16.28125 0.03125ZM19.5 8C20.328125 8 21 8.671875 21 9.5C21 10.332031 20.328125 11 19.5 11C18.667969 11 18 10.332031 18 9.5C18 8.671875 18.667969 8 19.5 8ZM30.5 8C31.332031 8 32 8.671875 32 9.5C32 10.332031 31.332031 11 30.5 11C29.671875 11 29 10.332031 29 9.5C29 8.671875 29.671875 8 30.5 8ZM8 15C6.34375 15 5 16.34375 5 18L5 32C5 33.65625 6.34375 35 8 35C8.351563 35 8.6875 34.925781 9 34.8125L9 15.1875C8.6875 15.074219 8.351563 15 8 15ZM11 15L11 37C11 38.652344 12.347656 40 14 40L36 40C37.652344 40 39 38.652344 39 37L39 15ZM42 15C41.648438 15 41.3125 15.074219 41 15.1875L41 34.8125C41.3125 34.921875 41.648438 35 42 35C43.65625 35 45 33.65625 45 32L45 18C45 16.34375 43.65625 15 42 15ZM15 42L15 46C15 48.207031 16.792969 50 19 50C21.207031 50 23 48.207031 23 46L23 42ZM27 42L27 46C27 48.207031 28.792969 50 31 50C33.207031 50 35 48.207031 35 46L35 42Z"/>
  </svg>