  <svg xmlns="http://www.w3.org/2000/svg"  viewBox="0 0 48 48" fill="currentColor">
    <path d="m 32.191976,45.447389 v -8.325005 c 0,-3.108648 -1.791355,-5.774506 -4.380244,-7.101208 10.84965,-2.075689 15.932002,-12.070333 9.97475,-19.615738 0.721865,-2.2219983 1.528253,-6.1194237 -0.387801,-9.1864337 -3.694203,0 -6.077955,2.5322387 -7.215642,4.1068753 C 28.238164,4.6869617 26.156969,4.3555684 24.054513,4.3500202 21.950701,4.3518102 19.867297,4.6800481 17.919629,5.3163441 16.779181,3.7409686 14.397338,1.2190043 10.710344,1.2190043 8.5114881,4.7386932 9.8707833,8.5238184 10.599086,10.068497 4.2222611,17.60129 9.2224733,27.910331 20.281396,30.03071 c -2.125735,1.095607 -3.717776,3.083685 -4.205417,5.495967 h -2.139263 c -2.110856,0 -2.931037,-0.857714 -4.0719097,-2.304555 -1.126224,-1.446841 -2.3372052,-2.419064 -3.7921837,-2.822683 -0.7844514,-0.083 -1.3129292,0.513678 -0.6293823,1.042612 2.3094121,1.572159 2.4688055,4.145276 3.39485,5.829732 0.84304,1.516823 2.5702927,2.883077 4.5232847,2.883077 h 2.555672 v 5.292529 c 4.253115,1.629422 12.41748,1.9209 16.274927,0 z"/>
  </svg>